<mxfile host="app.diagrams.net" modified="2023-07-07T15:53:50.133Z" agent="Mozilla/5.0 (Windows NT 10.0; Win64; x64; rv:109.0) Gecko/20100101 Firefox/114.0" etag="sHcNJC8lEG3F9qBwQjTL" version="21.3.8" type="device">
  <diagram name="Página-1" id="Gio7KG2NXPK5Yx0mutEf">
    <mxGraphModel dx="1050" dy="538" grid="1" gridSize="10" guides="1" tooltips="1" connect="1" arrows="1" fold="1" page="1" pageScale="1" pageWidth="827" pageHeight="1169" math="0" shadow="0">
      <root>
        <mxCell id="0" />
        <mxCell id="1" parent="0" />
        <mxCell id="8-LnIqaaUNXCPyM3z2nN-10" value="API GATEWAY" style="rounded=0;whiteSpace=wrap;html=1;" vertex="1" parent="1">
          <mxGeometry x="150" y="200" width="120" height="60" as="geometry" />
        </mxCell>
        <mxCell id="8-LnIqaaUNXCPyM3z2nN-11" value="MICROSERVICE CLIENT" style="whiteSpace=wrap;html=1;rounded=0;" vertex="1" parent="1">
          <mxGeometry x="440" y="80" width="120" height="60" as="geometry" />
        </mxCell>
        <mxCell id="8-LnIqaaUNXCPyM3z2nN-12" value="MICROSERVICE BANKINGPRODUCT" style="whiteSpace=wrap;html=1;rounded=0;" vertex="1" parent="1">
          <mxGeometry x="437" y="170" width="126" height="70" as="geometry" />
        </mxCell>
        <mxCell id="8-LnIqaaUNXCPyM3z2nN-13" value="" style="endArrow=classic;html=1;rounded=0;exitX=1;exitY=0.25;exitDx=0;exitDy=0;" edge="1" parent="1" source="8-LnIqaaUNXCPyM3z2nN-10">
          <mxGeometry width="50" height="50" relative="1" as="geometry">
            <mxPoint x="390" y="150" as="sourcePoint" />
            <mxPoint x="440" y="100" as="targetPoint" />
          </mxGeometry>
        </mxCell>
        <mxCell id="8-LnIqaaUNXCPyM3z2nN-14" value="" style="endArrow=classic;html=1;rounded=0;exitX=1;exitY=0.5;exitDx=0;exitDy=0;entryX=0;entryY=0.629;entryDx=0;entryDy=0;entryPerimeter=0;" edge="1" parent="1" source="8-LnIqaaUNXCPyM3z2nN-10" target="8-LnIqaaUNXCPyM3z2nN-12">
          <mxGeometry width="50" height="50" relative="1" as="geometry">
            <mxPoint x="410" y="300" as="sourcePoint" />
            <mxPoint x="430" y="230" as="targetPoint" />
          </mxGeometry>
        </mxCell>
        <mxCell id="8-LnIqaaUNXCPyM3z2nN-15" value="MICROSERVICE REPORT" style="rounded=0;whiteSpace=wrap;html=1;" vertex="1" parent="1">
          <mxGeometry x="434" y="380" width="120" height="60" as="geometry" />
        </mxCell>
        <mxCell id="8-LnIqaaUNXCPyM3z2nN-16" value="" style="endArrow=classic;html=1;rounded=0;exitX=1;exitY=0.75;exitDx=0;exitDy=0;" edge="1" parent="1" source="8-LnIqaaUNXCPyM3z2nN-10">
          <mxGeometry width="50" height="50" relative="1" as="geometry">
            <mxPoint x="410" y="300" as="sourcePoint" />
            <mxPoint x="430" y="410" as="targetPoint" />
          </mxGeometry>
        </mxCell>
        <mxCell id="8-LnIqaaUNXCPyM3z2nN-17" value="Microservicio de Gestión de Clientes" style="text;html=1;align=center;verticalAlign=middle;resizable=0;points=[];autosize=1;strokeColor=none;fillColor=none;" vertex="1" parent="1">
          <mxGeometry x="560" y="88" width="210" height="30" as="geometry" />
        </mxCell>
        <mxCell id="8-LnIqaaUNXCPyM3z2nN-18" value="Microservicio de Gestión de Productos Bancarios" style="text;html=1;align=center;verticalAlign=middle;resizable=0;points=[];autosize=1;strokeColor=none;fillColor=none;" vertex="1" parent="1">
          <mxGeometry x="563" y="180" width="280" height="30" as="geometry" />
        </mxCell>
        <mxCell id="8-LnIqaaUNXCPyM3z2nN-19" value="Microservicio de Generación de Reportes" style="text;html=1;align=center;verticalAlign=middle;resizable=0;points=[];autosize=1;strokeColor=none;fillColor=none;" vertex="1" parent="1">
          <mxGeometry x="570" y="390" width="240" height="30" as="geometry" />
        </mxCell>
        <mxCell id="8-LnIqaaUNXCPyM3z2nN-20" value="&lt;div&gt;MICROSERVICE&lt;/div&gt;&lt;div&gt;TRANSACTION&lt;/div&gt;" style="rounded=0;whiteSpace=wrap;html=1;" vertex="1" parent="1">
          <mxGeometry x="430" y="275" width="120" height="60" as="geometry" />
        </mxCell>
        <mxCell id="8-LnIqaaUNXCPyM3z2nN-21" value="" style="endArrow=classic;html=1;rounded=0;exitX=1;exitY=0.75;exitDx=0;exitDy=0;entryX=0;entryY=0.5;entryDx=0;entryDy=0;" edge="1" parent="1" source="8-LnIqaaUNXCPyM3z2nN-10" target="8-LnIqaaUNXCPyM3z2nN-20">
          <mxGeometry width="50" height="50" relative="1" as="geometry">
            <mxPoint x="390" y="410" as="sourcePoint" />
            <mxPoint x="440" y="360" as="targetPoint" />
          </mxGeometry>
        </mxCell>
        <mxCell id="8-LnIqaaUNXCPyM3z2nN-22" value="" style="endArrow=classic;html=1;rounded=0;exitX=1;exitY=1;exitDx=0;exitDy=0;" edge="1" parent="1" source="8-LnIqaaUNXCPyM3z2nN-10">
          <mxGeometry width="50" height="50" relative="1" as="geometry">
            <mxPoint x="390" y="410" as="sourcePoint" />
            <mxPoint x="420" y="500" as="targetPoint" />
          </mxGeometry>
        </mxCell>
        <mxCell id="8-LnIqaaUNXCPyM3z2nN-23" value="&lt;div&gt;MICROSERVICE&lt;/div&gt;&lt;div&gt;YANKIWALLET&lt;br&gt;&lt;/div&gt;" style="rounded=0;whiteSpace=wrap;html=1;" vertex="1" parent="1">
          <mxGeometry x="430" y="470" width="120" height="60" as="geometry" />
        </mxCell>
        <mxCell id="8-LnIqaaUNXCPyM3z2nN-24" value="Microservicio de Gestion de las transacciones realizadas " style="text;html=1;align=center;verticalAlign=middle;resizable=0;points=[];autosize=1;strokeColor=none;fillColor=none;" vertex="1" parent="1">
          <mxGeometry x="565" y="290" width="320" height="30" as="geometry" />
        </mxCell>
        <mxCell id="8-LnIqaaUNXCPyM3z2nN-26" value="Microservicio de Gestion del monedero móvil denominado &quot;Yanki&quot;" style="text;html=1;align=center;verticalAlign=middle;resizable=0;points=[];autosize=1;strokeColor=none;fillColor=none;" vertex="1" parent="1">
          <mxGeometry x="563" y="485" width="360" height="30" as="geometry" />
        </mxCell>
      </root>
    </mxGraphModel>
  </diagram>
</mxfile>
